{
    "asset" : {
        "generator" : "Khronos glTF Blender I/O v3.2.40",
        "version" : "2.0"
    },
    "scene" : 0,
    "scenes" : [
        {
            "name" : "Scene",
            "nodes" : [
                0,
                1,
                2,
                3,
                4,
                5
            ]
        }
    ],
    "nodes" : [
        {
            "mesh" : 0,
            "name" : "a_Plane.011",
            "rotation" : [
                0.7071068286895752,
                0,
                0,
                0.7071067094802856
            ]
        },
        {
            "mesh" : 1,
            "name" : "b_Plane.005",
            "rotation" : [
                0.7071068286895752,
                0,
                0,
                0.7071067094802856
            ]
        },
        {
            "mesh" : 2,
            "name" : "c_Plane.004",
            "rotation" : [
                0.7071068286895752,
                0,
                0,
                0.7071067094802856
            ]
        },
        {
            "mesh" : 3,
            "name" : "motorky_Plane.007",
            "rotation" : [
                0.7071068286895752,
                0,
                0,
                0.7071067094802856
            ]
        },
        {
            "mesh" : 4,
            "name" : "telo_Plane.006",
            "rotation" : [
                0.7071068286895752,
                0,
                0,
                0.7071067094802856
            ]
        },
        {
            "mesh" : 5,
            "name" : "d_Plane.003",
            "rotation" : [
                0.7071068286895752,
                0,
                0,
                0.7071067094802856
            ]
        }
    ],
    "materials" : [
        {
            "doubleSided" : true,
            "name" : "propellers",
            "pbrMetallicRoughness" : {
                "baseColorFactor" : [
                    0.800000011920929,
                    0.800000011920929,
                    0.800000011920929,
                    1
                ],
                "metallicFactor" : 0,
                "roughnessFactor" : 0.5
            }
        },
        {
            "doubleSided" : true,
            "name" : "motorky",
            "pbrMetallicRoughness" : {
                "baseColorFactor" : [
                    0.800000011920929,
                    0.800000011920929,
                    0.800000011920929,
                    1
                ],
                "metallicFactor" : 0,
                "roughnessFactor" : 0.5
            }
        },
        {
            "doubleSided" : true,
            "name" : "telo_texture",
            "pbrMetallicRoughness" : {
                "baseColorFactor" : [
                    0.800000011920929,
                    0.800000011920929,
                    0.800000011920929,
                    1
                ],
                "metallicFactor" : 0,
                "roughnessFactor" : 0.5
            }
        }
    ],
    "meshes" : [
        {
            "name" : "a_Plane.011",
            "primitives" : [
                {
                    "attributes" : {
                        "POSITION" : 0,
                        "NORMAL" : 1,
                        "TEXCOORD_0" : 2
                    },
                    "indices" : 3,
                    "material" : 0
                }
            ]
        },
        {
            "name" : "b_Plane.005",
            "primitives" : [
                {
                    "attributes" : {
                        "POSITION" : 4,
                        "NORMAL" : 5,
                        "TEXCOORD_0" : 6
                    },
                    "indices" : 3,
                    "material" : 0
                }
            ]
        },
        {
            "name" : "c_Plane.004",
            "primitives" : [
                {
                    "attributes" : {
                        "POSITION" : 7,
                        "NORMAL" : 8,
                        "TEXCOORD_0" : 9
                    },
                    "indices" : 3,
                    "material" : 0
                }
            ]
        },
        {
            "name" : "motorky_Plane.007",
            "primitives" : [
                {
                    "attributes" : {
                        "POSITION" : 10,
                        "NORMAL" : 11,
                        "TEXCOORD_0" : 12
                    },
                    "indices" : 13,
                    "material" : 1
                }
            ]
        },
        {
            "name" : "telo_Plane.006",
            "primitives" : [
                {
                    "attributes" : {
                        "POSITION" : 14,
                        "NORMAL" : 15,
                        "TEXCOORD_0" : 16
                    },
                    "indices" : 17,
                    "material" : 2
                }
            ]
        },
        {
            "name" : "d_Plane.003",
            "primitives" : [
                {
                    "attributes" : {
                        "POSITION" : 18,
                        "NORMAL" : 19,
                        "TEXCOORD_0" : 20
                    },
                    "indices" : 3,
                    "material" : 0
                }
            ]
        }
    ],
    "accessors" : [
        {
            "bufferView" : 0,
            "componentType" : 5126,
            "count" : 706,
            "max" : [
                -1.1954530477523804,
                -1.194530963897705,
                -0.8537709712982178
            ],
            "min" : [
                -4.79006814956665,
                -4.789144992828369,
                -1.5092159509658813
            ],
            "type" : "VEC3"
        },
        {
            "bufferView" : 1,
            "componentType" : 5126,
            "count" : 706,
            "type" : "VEC3"
        },
        {
            "bufferView" : 2,
            "componentType" : 5126,
            "count" : 706,
            "type" : "VEC2"
        },
        {
            "bufferView" : 3,
            "componentType" : 5123,
            "count" : 3480,
            "type" : "SCALAR"
        },
        {
            "bufferView" : 4,
            "componentType" : 5126,
            "count" : 706,
            "max" : [
                4.790064811706543,
                -1.194532036781311,
                -0.8537709712982178
            ],
            "min" : [
                1.195449948310852,
                -4.789144992828369,
                -1.5092159509658813
            ],
            "type" : "VEC3"
        },
        {
            "bufferView" : 5,
            "componentType" : 5126,
            "count" : 706,
            "type" : "VEC3"
        },
        {
            "bufferView" : 6,
            "componentType" : 5126,
            "count" : 706,
            "type" : "VEC2"
        },
        {
            "bufferView" : 7,
            "componentType" : 5126,
            "count" : 706,
            "max" : [
                4.790067195892334,
                4.789144992828369,
                -0.8537709712982178
            ],
            "min" : [
                1.195451021194458,
                1.194530963897705,
                -1.509214997291565
            ],
            "type" : "VEC3"
        },
        {
            "bufferView" : 8,
            "componentType" : 5126,
            "count" : 706,
            "type" : "VEC3"
        },
        {
            "bufferView" : 9,
            "componentType" : 5126,
            "count" : 706,
            "type" : "VEC2"
        },
        {
            "bufferView" : 10,
            "componentType" : 5126,
            "count" : 1332,
            "max" : [
                3.4247360229492188,
                3.4238169193267822,
                0.8295519948005676
            ],
            "min" : [
                -3.424736976623535,
                -3.423815965652466,
                -1.0198580026626587
            ],
            "type" : "VEC3"
        },
        {
            "bufferView" : 11,
            "componentType" : 5126,
            "count" : 1332,
            "type" : "VEC3"
        },
        {
            "bufferView" : 12,
            "componentType" : 5126,
            "count" : 1332,
            "type" : "VEC2"
        },
        {
            "bufferView" : 13,
            "componentType" : 5123,
            "count" : 6144,
            "type" : "SCALAR"
        },
        {
            "bufferView" : 14,
            "componentType" : 5126,
            "count" : 10762,
            "max" : [
                5.183787822723389,
                5.183791160583496,
                0.9847019910812378
            ],
            "min" : [
                -5.183786869049072,
                -5.18379020690918,
                -1.5713160037994385
            ],
            "type" : "VEC3"
        },
        {
            "bufferView" : 15,
            "componentType" : 5126,
            "count" : 10762,
            "type" : "VEC3"
        },
        {
            "bufferView" : 16,
            "componentType" : 5126,
            "count" : 10762,
            "type" : "VEC2"
        },
        {
            "bufferView" : 17,
            "componentType" : 5123,
            "count" : 46752,
            "type" : "SCALAR"
        },
        {
            "bufferView" : 18,
            "componentType" : 5126,
            "count" : 706,
            "max" : [
                -1.1954489946365356,
                4.789147853851318,
                -0.8537709712982178
            ],
            "min" : [
                -4.79006290435791,
                1.1945329904556274,
                -1.509214997291565
            ],
            "type" : "VEC3"
        },
        {
            "bufferView" : 19,
            "componentType" : 5126,
            "count" : 706,
            "type" : "VEC3"
        },
        {
            "bufferView" : 20,
            "componentType" : 5126,
            "count" : 706,
            "type" : "VEC2"
        }
    ],
    "bufferViews" : [
        {
            "buffer" : 0,
            "byteLength" : 8472,
            "byteOffset" : 0
        },
        {
            "buffer" : 0,
            "byteLength" : 8472,
            "byteOffset" : 8472
        },
        {
            "buffer" : 0,
            "byteLength" : 5648,
            "byteOffset" : 16944
        },
        {
            "buffer" : 0,
            "byteLength" : 6960,
            "byteOffset" : 22592
        },
        {
            "buffer" : 0,
            "byteLength" : 8472,
            "byteOffset" : 29552
        },
        {
            "buffer" : 0,
            "byteLength" : 8472,
            "byteOffset" : 38024
        },
        {
            "buffer" : 0,
            "byteLength" : 5648,
            "byteOffset" : 46496
        },
        {
            "buffer" : 0,
            "byteLength" : 8472,
            "byteOffset" : 52144
        },
        {
            "buffer" : 0,
            "byteLength" : 8472,
            "byteOffset" : 60616
        },
        {
            "buffer" : 0,
            "byteLength" : 5648,
            "byteOffset" : 69088
        },
        {
            "buffer" : 0,
            "byteLength" : 15984,
            "byteOffset" : 74736
        },
        {
            "buffer" : 0,
            "byteLength" : 15984,
            "byteOffset" : 90720
        },
        {
            "buffer" : 0,
            "byteLength" : 10656,
            "byteOffset" : 106704
        },
        {
            "buffer" : 0,
            "byteLength" : 12288,
            "byteOffset" : 117360
        },
        {
            "buffer" : 0,
            "byteLength" : 129144,
            "byteOffset" : 129648
        },
        {
            "buffer" : 0,
            "byteLength" : 129144,
            "byteOffset" : 258792
        },
        {
            "buffer" : 0,
            "byteLength" : 86096,
            "byteOffset" : 387936
        },
        {
            "buffer" : 0,
            "byteLength" : 93504,
            "byteOffset" : 474032
        },
        {
            "buffer" : 0,
            "byteLength" : 8472,
            "byteOffset" : 567536
        },
        {
            "buffer" : 0,
            "byteLength" : 8472,
            "byteOffset" : 576008
        },
        {
            "buffer" : 0,
            "byteLength" : 5648,
            "byteOffset" : 584480
        }
    ],
    "buffers" : [
        {
            "byteLength" : 590128,
            "uri" : "data:application/octet-stream;base64,"
        }
    ]
}
