{
    "asset" : {
        "generator" : "Khronos glTF Blender I/O v3.2.40",
        "version" : "2.0"
    },
    "scene" : 0,
    "scenes" : [
        {
            "name" : "Scene",
            "nodes" : [
                0
            ]
        }
    ],
    "nodes" : [
        {
            "mesh" : 0,
            "name" : "Cylinder",
            "rotation" : [
                0.7071068286895752,
                0,
                0,
                0.7071068286895752
            ],
            "scale" : [
                0.4828677177429199,
                1.35302734375,
                0.4828677177429199
            ],
            "translation" : [
                0,
                0.604433000087738,
                0
            ]
        }
    ],
    "materials" : [
        {
            "doubleSided" : true,
            "name" : "Material.001",
            "pbrMetallicRoughness" : {
                "baseColorFactor" : [
                    0.00555728143081069,
                    0,
                    0.8000000715255737,
                    1
                ],
                "metallicFactor" : 0,
                "roughnessFactor" : 0.5
            }
        }
    ],
    "meshes" : [
        {
            "name" : "Cylinder.008",
            "primitives" : [
                {
                    "attributes" : {
                        "POSITION" : 0,
                        "NORMAL" : 1,
                        "TEXCOORD_0" : 2
                    },
                    "indices" : 3,
                    "material" : 0
                }
            ]
        }
    ],
    "accessors" : [
        {
            "bufferView" : 0,
            "componentType" : 5126,
            "count" : 1896,
            "max" : [
                2.9094889163970947,
                8.3386869430542,
                1
            ],
            "min" : [
                -2.9094889163970947,
                -8.3386869430542,
                -13.560123443603516
            ],
            "type" : "VEC3"
        },
        {
            "bufferView" : 1,
            "componentType" : 5126,
            "count" : 1896,
            "type" : "VEC3"
        },
        {
            "bufferView" : 2,
            "componentType" : 5126,
            "count" : 1896,
            "type" : "VEC2"
        },
        {
            "bufferView" : 3,
            "componentType" : 5123,
            "count" : 3648,
            "type" : "SCALAR"
        }
    ],
    "bufferViews" : [
        {
            "buffer" : 0,
            "byteLength" : 22752,
            "byteOffset" : 0
        },
        {
            "buffer" : 0,
            "byteLength" : 22752,
            "byteOffset" : 22752
        },
        {
            "buffer" : 0,
            "byteLength" : 15168,
            "byteOffset" : 45504
        },
        {
            "buffer" : 0,
            "byteLength" : 7296,
            "byteOffset" : 60672
        }
    ],
    "buffers" : [
        {
            "byteLength" : 67968,
            "uri" : "data:application/octet-stream;base64,"
        }
    ]
}
