{
    "asset" : {
        "generator" : "Khronos glTF Blender I/O v3.2.40",
        "version" : "2.0"
    },
    "scene" : 0,
    "scenes" : [
        {
            "name" : "Scene",
            "nodes" : [
                0,
                1
            ]
        }
    ],
    "nodes" : [
        {
            "mesh" : 0,
            "name" : "Cylinder",
            "scale" : [
                0.8441123366355896,
                0.9691757559776306,
                0.8441123366355896
            ],
            "translation" : [
                0,
                8.402158737182617,
                0
            ]
        },
        {
            "mesh" : 1,
            "name" : "Circle",
            "rotation" : [
                -0.1293335258960724,
                0,
                0,
                0.9916011691093445
            ],
            "scale" : [
                1.2529759407043457,
                1,
                1.2529759407043457
            ],
            "translation" : [
                0,
                10.841870307922363,
                -0.06817076355218887
            ]
        }
    ],
    "materials" : [
        {
            "doubleSided" : true,
            "name" : "Material.001",
            "pbrMetallicRoughness" : {
                "baseColorFactor" : [
                    0.32406261563301086,
                    0.8000000715255737,
                    0.08686286211013794,
                    1
                ],
                "metallicFactor" : 0,
                "roughnessFactor" : 0.5
            }
        },
        {
            "doubleSided" : true,
            "name" : "Material",
            "pbrMetallicRoughness" : {
                "baseColorFactor" : [
                    0.11689232289791107,
                    0.8000000715255737,
                    0.08475125581026077,
                    1
                ],
                "metallicFactor" : 0,
                "roughnessFactor" : 0.5
            }
        }
    ],
    "meshes" : [
        {
            "name" : "Cylinder",
            "primitives" : [
                {
                    "attributes" : {
                        "POSITION" : 0,
                        "NORMAL" : 1,
                        "TEXCOORD_0" : 2
                    },
                    "indices" : 3,
                    "material" : 0
                }
            ]
        },
        {
            "name" : "Circle",
            "primitives" : [
                {
                    "attributes" : {
                        "POSITION" : 4,
                        "NORMAL" : 5,
                        "TEXCOORD_0" : 6
                    },
                    "indices" : 7,
                    "material" : 1
                }
            ]
        }
    ],
    "accessors" : [
        {
            "bufferView" : 0,
            "componentType" : 5126,
            "count" : 1728,
            "max" : [
                1.7041900157928467,
                2.195726156234741,
                1.7041900157928467
            ],
            "min" : [
                -1.7041900157928467,
                -5.208990573883057,
                -3.1769280433654785
            ],
            "type" : "VEC3"
        },
        {
            "bufferView" : 1,
            "componentType" : 5126,
            "count" : 1728,
            "type" : "VEC3"
        },
        {
            "bufferView" : 2,
            "componentType" : 5126,
            "count" : 1728,
            "type" : "VEC2"
        },
        {
            "bufferView" : 3,
            "componentType" : 5123,
            "count" : 9438,
            "type" : "SCALAR"
        },
        {
            "bufferView" : 4,
            "componentType" : 5126,
            "count" : 32,
            "max" : [
                1.0019994974136353,
                0.06400390714406967,
                1
            ],
            "min" : [
                -1.0179656744003296,
                -0.03247598186135292,
                -1
            ],
            "type" : "VEC3"
        },
        {
            "bufferView" : 5,
            "componentType" : 5126,
            "count" : 32,
            "type" : "VEC3"
        },
        {
            "bufferView" : 6,
            "componentType" : 5126,
            "count" : 32,
            "type" : "VEC2"
        },
        {
            "bufferView" : 7,
            "componentType" : 5123,
            "count" : 90,
            "type" : "SCALAR"
        }
    ],
    "bufferViews" : [
        {
            "buffer" : 0,
            "byteLength" : 20736,
            "byteOffset" : 0
        },
        {
            "buffer" : 0,
            "byteLength" : 20736,
            "byteOffset" : 20736
        },
        {
            "buffer" : 0,
            "byteLength" : 13824,
            "byteOffset" : 41472
        },
        {
            "buffer" : 0,
            "byteLength" : 18876,
            "byteOffset" : 55296
        },
        {
            "buffer" : 0,
            "byteLength" : 384,
            "byteOffset" : 74172
        },
        {
            "buffer" : 0,
            "byteLength" : 384,
            "byteOffset" : 74556
        },
        {
            "buffer" : 0,
            "byteLength" : 256,
            "byteOffset" : 74940
        },
        {
            "buffer" : 0,
            "byteLength" : 180,
            "byteOffset" : 75196
        }
    ],
    "buffers" : [
        {
            "byteLength" : 75376,
            "uri" : "data:application/octet-stream;base64,"
        }
    ]
}
